<svg xmlns="http://www.w3.org/2000/svg" width="512" height="512" viewBox="0 0 512 512">
  <defs>
    <linearGradient id="bg" x1="0" y1="0" x2="1" y2="1">
      <stop offset="0" stop-color="#2dd4bf"/>
      <stop offset="1" stop-color="#38bdf8"/>
    </linearGradient>
  </defs>
  <rect width="512" height="512" rx="112" fill="#0a0d12"/>
  <rect x="40" y="40" width="432" height="432" rx="96" fill="url(#bg)"/>
  <g fill="#04121a">
    <path d="M196 132 h120 a24 24 0 0 1 24 24 v200 a24 24 0 0 1 -24 24 h-120 a24 24 0 0 1 -24 -24 v-200 a24 24 0 0 1 24 -24 z" fill="#04121a" opacity="0.12"/>
    <rect x="236" y="120" width="40" height="280" rx="20"/>
    <rect x="236" y="120" width="40" height="46" rx="20" fill="#e9d36c"/>
    <rect x="236" y="206" width="40" height="46" rx="20" fill="#e9d36c"/>
    <rect x="236" y="292" width="40" height="46" rx="20" fill="#e9d36c"/>
    <circle cx="352" cy="356" r="40" fill="#04121a"/>
    <circle cx="352" cy="356" r="16" fill="url(#bg)"/>
  </g>
</svg>
